<svg xmlns="http://www.w3.org/2000/svg" viewBox="0 0 579.55 580.01" width="579.55" height="580.01"><g><rect x="0" y="0" width="579.55" height="580.01"></rect><g><circle cx="578.48" cy="553.67" r="27.07" transform="translate(-93.29 989.46) rotate(-76.72)" fill="#141414"></circle><path d="M578.48,495.8c8.45,0,15.31-6.85,15.31-15.31s-6.85-15.31-15.31-15.31c-8.45,0-15.31,6.85-15.31,15.31,0,8.45,6.85,15.31,15.31,15.31Z" fill="#141414"></path></g><g><circle cx="288.7" cy="553.67" r="27.07" transform="translate(-316.49 707.44) rotate(-76.72)" fill="#141414"></circle><path d="M288.7,495.8c8.45,0,15.31-6.85,15.31-15.31s-6.85-15.31-15.31-15.31c-8.45,0-15.31,6.85-15.31,15.31,0,8.45,6.85,15.31,15.31,15.31Z" fill="#141414"></path><circle cx="361.23" cy="407.56" r="15.31" fill="#141414"></circle><circle cx="361.23" cy="480.49" r="31.7" fill="#141414"></circle><path d="M505.95,516.39c-13.17,0-24.73,6.85-31.36,17.17-4.54-9.25-12.08-16.72-21.38-21.17,10.68-6.62,17.81-18.41,17.81-31.89,0-20.73-16.8-37.53-37.53-37.53s-37.53,16.8-37.53,37.53c0,13.48,7.13,25.27,17.81,31.89-9.24,4.42-16.75,11.83-21.29,21-6.65-10.22-18.15-16.99-31.25-16.99-20.59,0-37.28,16.69-37.28,37.28s16.69,37.28,37.28,37.28c13.1,0,24.6-6.77,31.25-16.99,4.43,8.94,11.68,16.21,20.6,20.67-10.29,6.69-17.12,18.28-17.12,31.47,0,20.73,16.8,37.53,37.53,37.53s37.53-16.8,37.53-37.53c0-13.19-6.82-24.78-17.12-31.47,8.98-4.49,16.26-11.82,20.68-20.84,6.63,10.32,18.18,17.17,31.36,17.17,20.59,0,37.28-16.69,37.28-37.28s-16.69-37.28-37.28-37.28Z" fill="#141414"></path><circle cx="578.48" cy="553.67" r="27.07" fill="#141414"></circle><path d="M578.48,495.8c8.45,0,15.31-6.85,15.31-15.31,0-8.45-6.85-15.31-15.31-15.31-8.45,0-15.31,6.85-15.31,15.31,0,8.45,6.85,15.31,15.31,15.31Z" fill="#141414"></path><path d="M505.95,422.87c8.45,0,15.31-6.85,15.31-15.31,0-8.45-6.85-15.31-15.31-15.31-8.45,0-15.31,6.85-15.31,15.31s6.85,15.31,15.31,15.31Z" fill="#141414"></path><circle cx="505.95" cy="480.49" r="31.7" fill="#141414"></circle><path d="M433.5,434.49c14.87,0,26.92-12.05,26.92-26.92,0-14.87-12.05-26.92-26.92-26.92-14.87,0-26.92,12.05-26.92,26.92,0,14.87,12.05,26.92,26.92,26.92Z" fill="#141414"></path></g><g><circle cx="-1.07" cy="553.67" r="27.07" transform="translate(-539.68 425.42) rotate(-76.72)" fill="#141414"></circle><path d="M-1.07,495.8c8.45,0,15.31-6.85,15.31-15.31s-6.85-15.31-15.31-15.31c-8.45,0-15.31,6.85-15.31,15.31,0,8.45,6.85,15.31,15.31,15.31Z" fill="#141414"></path><circle cx="71.45" cy="407.56" r="15.31" fill="#141414"></circle><circle cx="71.45" cy="480.49" r="31.7" fill="#141414"></circle><path d="M216.18,516.39c-13.17,0-24.73,6.85-31.36,17.17-4.54-9.25-12.08-16.72-21.38-21.17,10.68-6.62,17.81-18.41,17.81-31.89,0-20.73-16.8-37.53-37.53-37.53s-37.53,16.8-37.53,37.53c0,13.48,7.13,25.27,17.81,31.89-9.24,4.42-16.75,11.83-21.29,21-6.65-10.22-18.15-16.99-31.25-16.99-20.59,0-37.28,16.69-37.28,37.28s16.69,37.28,37.28,37.28c13.1,0,24.6-6.77,31.25-16.99,4.43,8.94,11.68,16.21,20.6,20.67-10.29,6.69-17.12,18.28-17.12,31.47,0,20.73,16.8,37.53,37.53,37.53s37.53-16.8,37.53-37.53c0-13.19-6.82-24.78-17.12-31.47,8.98-4.49,16.26-11.82,20.68-20.84,6.63,10.32,18.18,17.17,31.36,17.17,20.59,0,37.28-16.69,37.28-37.28s-16.69-37.28-37.28-37.28Z" fill="#141414"></path><circle cx="288.7" cy="553.67" r="27.07" fill="#141414"></circle><path d="M288.7,495.8c8.45,0,15.31-6.85,15.31-15.31,0-8.45-6.85-15.31-15.31-15.31-8.45,0-15.31,6.85-15.31,15.31,0,8.45,6.85,15.31,15.31,15.31Z" fill="#141414"></path><path d="M216.18,422.87c8.45,0,15.31-6.85,15.31-15.31,0-8.45-6.85-15.31-15.31-15.31-8.45,0-15.31,6.85-15.31,15.31s6.85,15.31,15.31,15.31Z" fill="#141414"></path><circle cx="216.18" cy="480.49" r="31.7" fill="#141414"></circle><path d="M143.72,434.49c14.87,0,26.92-12.05,26.92-26.92,0-14.87-12.05-26.92-26.92-26.92-14.87,0-26.92,12.05-26.92,26.92,0,14.87,12.05,26.92,26.92,26.92Z" fill="#141414"></path></g><g><circle cx="-1.07" cy="553.67" r="27.07" fill="#141414"></circle><path d="M-1.07,495.8c8.45,0,15.31-6.85,15.31-15.31,0-8.45-6.85-15.31-15.31-15.31-8.45,0-15.31,6.85-15.31,15.31,0,8.45,6.85,15.31,15.31,15.31Z" fill="#141414"></path></g><g><circle cx="433.59" cy="263.66" r="27.07" transform="translate(77.36 625.08) rotate(-76.72)" fill="#141414"></circle><circle cx="433.59" cy="336.09" r="15.31" transform="translate(32.39 710.24) rotate(-80.78)" fill="#141414"></circle><path d="M433.59,205.79c8.45,0,15.31-6.85,15.31-15.31s-6.85-15.31-15.31-15.31c-8.45,0-15.31,6.85-15.31,15.31,0,8.45,6.85,15.31,15.31,15.31Z" fill="#141414"></path><circle cx="506.11" cy="117.56" r="15.31" fill="#141414"></circle><circle cx="506.11" cy="190.48" r="31.7" fill="#141414"></circle><circle cx="506.11" cy="336.09" r="31.7" fill="#141414"></circle><path d="M650.84,226.38c-13.17,0-24.73,6.85-31.36,17.17-4.54-9.25-12.08-16.72-21.38-21.17,10.68-6.62,17.81-18.41,17.81-31.89,0-20.73-16.8-37.53-37.53-37.53s-37.53,16.8-37.53,37.53c0,13.48,7.13,25.27,17.81,31.89-9.24,4.42-16.75,11.83-21.29,21-6.65-10.22-18.15-16.99-31.25-16.99-20.59,0-37.28,16.69-37.28,37.28s16.69,37.28,37.28,37.28c13.1,0,24.6-6.77,31.25-16.99,4.43,8.94,11.68,16.21,20.6,20.67-10.29,6.69-17.12,18.28-17.12,31.47,0,20.73,16.8,37.53,37.53,37.53s37.53-16.8,37.53-37.53c0-13.19-6.82-24.78-17.12-31.47,8.98-4.49,16.26-11.82,20.68-20.84,6.63,10.32,18.18,17.17,31.36,17.17,20.59,0,37.28-16.69,37.28-37.28s-16.69-37.28-37.28-37.28Z" fill="#141414"></path><path d="M578.38,144.48c14.87,0,26.92-12.05,26.92-26.92,0-14.87-12.05-26.92-26.92-26.92-14.87,0-26.92,12.05-26.92,26.92,0,14.87,12.05,26.92,26.92,26.92Z" fill="#141414"></path><circle cx="506.11" cy="407.91" r="15.31" fill="#141414"></circle><circle cx="578.38" cy="407.91" r="26.92" transform="translate(-112.07 252.39) rotate(-22.5)" fill="#141414"></circle></g><g><circle cx="143.82" cy="263.66" r="27.07" transform="translate(-145.84 343.05) rotate(-76.72)" fill="#141414"></circle><circle cx="143.82" cy="336.09" r="15.31" transform="translate(-210.97 424.21) rotate(-80.78)" fill="#141414"></circle><path d="M143.82,205.79c8.45,0,15.31-6.85,15.31-15.31s-6.85-15.31-15.31-15.31c-8.45,0-15.31,6.85-15.31,15.31,0,8.45,6.85,15.31,15.31,15.31Z" fill="#141414"></path><circle cx="216.34" cy="117.56" r="15.31" fill="#141414"></circle><circle cx="216.34" cy="190.48" r="31.7" fill="#141414"></circle><circle cx="216.34" cy="336.09" r="31.7" fill="#141414"></circle><path d="M361.07,226.38c-13.17,0-24.73,6.85-31.36,17.17-4.54-9.25-12.08-16.72-21.38-21.17,10.68-6.62,17.81-18.41,17.81-31.89,0-20.73-16.8-37.53-37.53-37.53s-37.53,16.8-37.53,37.53c0,13.48,7.13,25.27,17.81,31.89-9.24,4.42-16.75,11.83-21.29,21-6.65-10.22-18.15-16.99-31.25-16.99-20.59,0-37.28,16.69-37.28,37.28s16.69,37.28,37.28,37.28c13.1,0,24.6-6.77,31.25-16.99,4.43,8.94,11.68,16.21,20.6,20.67-10.29,6.69-17.12,18.28-17.12,31.47,0,20.73,16.8,37.53,37.53,37.53s37.53-16.8,37.53-37.53c0-13.19-6.82-24.78-17.12-31.47,8.98-4.49,16.26-11.82,20.68-20.84,6.63,10.32,18.18,17.17,31.36,17.17,20.59,0,37.28-16.69,37.28-37.28s-16.69-37.28-37.28-37.28Z" fill="#141414"></path><circle cx="433.59" cy="263.66" r="27.07" fill="#141414"></circle><path d="M433.59,205.79c8.45,0,15.31-6.85,15.31-15.31,0-8.45-6.85-15.31-15.31-15.31-8.45,0-15.31,6.85-15.31,15.31,0,8.45,6.85,15.31,15.31,15.31Z" fill="#141414"></path><path d="M433.59,320.78c-8.45,0-15.31,6.85-15.31,15.31,0,8.45,6.85,15.31,15.31,15.31s15.31-6.85,15.31-15.31-6.85-15.31-15.31-15.31Z" fill="#141414"></path><path d="M361.07,132.86c8.45,0,15.31-6.85,15.31-15.31,0-8.45-6.85-15.31-15.31-15.31-8.45,0-15.31,6.85-15.31,15.31s6.85,15.31,15.31,15.31Z" fill="#141414"></path><circle cx="361.07" cy="336.09" r="31.7" fill="#141414"></circle><circle cx="361.07" cy="190.48" r="31.7" fill="#141414"></circle><path d="M288.61,144.48c14.87,0,26.92-12.05,26.92-26.92,0-14.87-12.05-26.92-26.92-26.92-14.87,0-26.92,12.05-26.92,26.92,0,14.87,12.05,26.92,26.92,26.92Z" fill="#141414"></path><circle cx="216.34" cy="407.91" r="15.31" fill="#141414"></circle><circle cx="361.07" cy="407.91" r="15.31" fill="#141414"></circle><circle cx="288.61" cy="407.91" r="26.92" transform="translate(-134.13 141.5) rotate(-22.5)" fill="#141414"></circle></g><g><path d="M71.29,226.38c-13.17,0-24.73,6.85-31.36,17.17-4.54-9.25-12.08-16.72-21.38-21.17,10.68-6.62,17.81-18.41,17.81-31.89,0-20.73-16.8-37.53-37.53-37.53s-37.53,16.8-37.53,37.53c0,13.48,7.13,25.27,17.81,31.89-9.24,4.42-16.75,11.83-21.29,21-6.65-10.22-18.15-16.99-31.25-16.99-20.59,0-37.28,16.69-37.28,37.28s16.69,37.28,37.28,37.28c13.1,0,24.6-6.77,31.25-16.99,4.43,8.94,11.68,16.21,20.6,20.67-10.29,6.69-17.12,18.28-17.12,31.47,0,20.73,16.8,37.53,37.53,37.53s37.53-16.8,37.53-37.53c0-13.19-6.82-24.78-17.12-31.47,8.98-4.49,16.26-11.82,20.68-20.84,6.63,10.32,18.18,17.17,31.36,17.17,20.59,0,37.28-16.69,37.28-37.28s-16.69-37.28-37.28-37.28Z" fill="#141414"></path><circle cx="143.82" cy="263.66" r="27.07" fill="#141414"></circle><path d="M143.82,205.79c8.45,0,15.31-6.85,15.31-15.31,0-8.45-6.85-15.31-15.31-15.31-8.45,0-15.31,6.85-15.31,15.31,0,8.45,6.85,15.31,15.31,15.31Z" fill="#141414"></path><path d="M143.82,320.78c-8.45,0-15.31,6.85-15.31,15.31,0,8.45,6.85,15.31,15.31,15.31s15.31-6.85,15.31-15.31-6.85-15.31-15.31-15.31Z" fill="#141414"></path><path d="M71.29,132.86c8.45,0,15.31-6.85,15.31-15.31,0-8.45-6.85-15.31-15.31-15.31-8.45,0-15.31,6.85-15.31,15.31s6.85,15.31,15.31,15.31Z" fill="#141414"></path><circle cx="71.29" cy="336.09" r="31.7" fill="#141414"></circle><circle cx="71.29" cy="190.48" r="31.7" fill="#141414"></circle><path d="M-1.16,144.48c14.87,0,26.92-12.05,26.92-26.92,0-14.87-12.05-26.92-26.92-26.92-14.87,0-26.92,12.05-26.92,26.92,0,14.87,12.05,26.92,26.92,26.92Z" fill="#141414"></path><circle cx="71.29" cy="407.91" r="15.31" fill="#141414"></circle><circle cx="-1.16" cy="407.91" r="26.92" transform="translate(-156.19 30.6) rotate(-22.5)" fill="#141414"></circle></g><g><circle cx="578.48" cy="-26.34" r="27.07" transform="translate(471.21 542.71) rotate(-76.72)" fill="#141414"></circle><circle cx="578.48" cy="46.08" r="15.31" transform="translate(440.33 609.7) rotate(-80.78)" fill="#141414"></circle></g><g><circle cx="288.7" cy="-26.34" r="27.07" transform="translate(248.01 260.69) rotate(-76.72)" fill="#141414"></circle><circle cx="288.7" cy="46.08" r="15.31" transform="translate(196.97 323.67) rotate(-80.78)" fill="#141414"></circle><circle cx="361.23" cy="46.08" r="31.7" fill="#141414"></circle><path d="M505.95-63.63c-13.17,0-24.73,6.85-31.36,17.17-4.54-9.25-12.08-16.72-21.38-21.17,10.68-6.62,17.81-18.41,17.81-31.89,0-20.73-16.8-37.53-37.53-37.53s-37.53,16.8-37.53,37.53c0,13.48,7.13,25.27,17.81,31.89-9.24,4.42-16.75,11.83-21.29,21-6.65-10.22-18.15-16.99-31.25-16.99-20.59,0-37.28,16.69-37.28,37.28s16.69,37.28,37.28,37.28c13.1,0,24.6-6.77,31.25-16.99,4.43,8.94,11.68,16.21,20.6,20.67-10.29,6.69-17.12,18.28-17.12,31.47,0,20.73,16.8,37.53,37.53,37.53s37.53-16.8,37.53-37.53c0-13.19-6.82-24.78-17.12-31.47,8.98-4.49,16.26-11.82,20.68-20.84,6.63,10.32,18.18,17.17,31.36,17.17,20.59,0,37.28-16.69,37.28-37.28s-16.69-37.28-37.28-37.28Z" fill="#141414"></path><circle cx="578.48" cy="-26.34" r="27.07" fill="#141414"></circle><path d="M578.48,30.77c-8.45,0-15.31,6.85-15.31,15.31,0,8.45,6.85,15.31,15.31,15.31s15.31-6.85,15.31-15.31-6.85-15.31-15.31-15.31Z" fill="#141414"></path><circle cx="505.95" cy="46.08" r="31.7" fill="#141414"></circle><circle cx="361.23" cy="117.9" r="15.31" fill="#141414"></circle><circle cx="505.95" cy="117.9" r="15.31" fill="#141414"></circle><circle cx="433.5" cy="117.9" r="26.92" transform="translate(-12.12 174.87) rotate(-22.5)" fill="#141414"></circle></g><g><circle cx="-1.07" cy="-26.34" r="27.07" transform="translate(24.82 -21.33) rotate(-76.72)" fill="#141414"></circle><circle cx="-1.07" cy="46.08" r="15.31" transform="translate(-46.38 37.64) rotate(-80.78)" fill="#141414"></circle><circle cx="71.45" cy="46.08" r="31.7" fill="#141414"></circle><path d="M216.18-63.63c-13.17,0-24.73,6.85-31.36,17.17-4.54-9.25-12.08-16.72-21.38-21.17,10.68-6.62,17.81-18.41,17.81-31.89,0-20.73-16.8-37.53-37.53-37.53s-37.53,16.8-37.53,37.53c0,13.48,7.13,25.27,17.81,31.89-9.24,4.42-16.75,11.83-21.29,21-6.65-10.22-18.15-16.99-31.25-16.99-20.59,0-37.28,16.69-37.28,37.28S50.86,10.94,71.45,10.94c13.1,0,24.6-6.77,31.25-16.99,4.43,8.94,11.68,16.21,20.6,20.67-10.29,6.69-17.12,18.28-17.12,31.47,0,20.73,16.8,37.53,37.53,37.53s37.53-16.8,37.53-37.53c0-13.19-6.82-24.78-17.12-31.47,8.98-4.49,16.26-11.82,20.68-20.84,6.63,10.32,18.18,17.17,31.36,17.17,20.59,0,37.28-16.69,37.28-37.28s-16.69-37.28-37.28-37.28Z" fill="#141414"></path><circle cx="288.7" cy="-26.34" r="27.07" fill="#141414"></circle><path d="M288.7,30.77c-8.45,0-15.31,6.85-15.31,15.31,0,8.45,6.85,15.31,15.31,15.31s15.31-6.85,15.31-15.31-6.85-15.31-15.31-15.31Z" fill="#141414"></path><circle cx="216.18" cy="46.08" r="31.7" fill="#141414"></circle><circle cx="71.45" cy="117.9" r="15.31" fill="#141414"></circle><circle cx="216.18" cy="117.9" r="15.31" fill="#141414"></circle><circle cx="143.72" cy="117.9" r="26.92" transform="translate(-34.18 63.98) rotate(-22.5)" fill="#141414"></circle></g><g><circle cx="-1.07" cy="-26.34" r="27.07" fill="#141414"></circle><path d="M-1.07,30.77c-8.45,0-15.31,6.85-15.31,15.31,0,8.45,6.85,15.31,15.31,15.31s15.31-6.85,15.31-15.31S7.38,30.77-1.07,30.77Z" fill="#141414"></path></g></g></svg>